<?xml version="1.0" encoding="utf-8" standalone="no"?>
<!DOCTYPE svg PUBLIC "-//W3C//DTD SVG 1.1//EN"
  "http://www.w3.org/Graphics/SVG/1.1/DTD/svg11.dtd">
<svg xmlns:xlink="http://www.w3.org/1999/xlink" width="288.52875pt" height="306.99725pt" viewBox="0 0 288.52875 306.99725" xmlns="http://www.w3.org/2000/svg" version="1.1">
 <metadata>
  <rdf:RDF xmlns:dc="http://purl.org/dc/elements/1.1/" xmlns:cc="http://creativecommons.org/ns#" xmlns:rdf="http://www.w3.org/1999/02/22-rdf-syntax-ns#">
   <cc:Work>
    <dc:type rdf:resource="http://purl.org/dc/dcmitype/StillImage"/>
    <dc:date>2024-09-20T01:41:34.484851</dc:date>
    <dc:format>image/svg+xml</dc:format>
    <dc:creator>
     <cc:Agent>
      <dc:title>Matplotlib v3.7.5, https://matplotlib.org/</dc:title>
     </cc:Agent>
    </dc:creator>
   </cc:Work>
  </rdf:RDF>
 </metadata>
 <defs>
  <style type="text/css">*{stroke-linejoin: round; stroke-linecap: butt}</style>
 </defs>
 <g id="figure_1">
  <g id="patch_1">
   <path d="M 0 306.99725 
L 288.52875 306.99725 
L 288.52875 0 
L 0 0 
z
" style="fill: #ffffff"/>
  </g>
  <g id="axes_1">
   <g id="patch_2">
    <path d="M 75.69875 253.956 
L 281.32875 253.956 
L 281.32875 7.2 
L 75.69875 7.2 
z
" style="fill: #ffffff"/>
   </g>
   <g id="PathCollection_1">
    <defs>
     <path id="md2d0a9bc47" d="M 0 1.5 
C 0.397805 1.5 0.77937 1.341951 1.06066 1.06066 
C 1.341951 0.77937 1.5 0.397805 1.5 0 
C 1.5 -0.397805 1.341951 -0.77937 1.06066 -1.06066 
C 0.77937 -1.341951 0.397805 -1.5 0 -1.5 
C -0.397805 -1.5 -0.77937 -1.341951 -1.06066 -1.06066 
C -1.341951 -0.77937 -1.5 -0.397805 -1.5 0 
C -1.5 0.397805 -1.341951 0.77937 -1.06066 1.06066 
C -0.77937 1.341951 -0.397805 1.5 0 1.5 
z
"/>
    </defs>
    <g clip-path="url(#pda356fb32e)">
     <use xlink:href="#md2d0a9bc47" x="130.753147" y="158.870745" style="fill: #808080; fill-opacity: 0.8"/>
     <use xlink:href="#md2d0a9bc47" x="126.390559" y="140.66816" style="fill: #808080; fill-opacity: 0.8"/>
     <use xlink:href="#md2d0a9bc47" x="132.8274" y="76.380009" style="fill: #808080; fill-opacity: 0.8"/>
     <use xlink:href="#md2d0a9bc47" x="133.720173" y="140.4461" style="fill: #808080; fill-opacity: 0.8"/>
     <use xlink:href="#md2d0a9bc47" x="133.653486" y="201.971539" style="fill: #808080; fill-opacity: 0.8"/>
     <use xlink:href="#md2d0a9bc47" x="140.337307" y="104.822643" style="fill: #808080; fill-opacity: 0.8"/>
     <use xlink:href="#md2d0a9bc47" x="133.170951" y="120.395273" style="fill: #808080; fill-opacity: 0.8"/>
     <use xlink:href="#md2d0a9bc47" x="140.799227" y="194.610612" style="fill: #808080; fill-opacity: 0.8"/>
     <use xlink:href="#md2d0a9bc47" x="127.489368" y="150.928888" style="fill: #808080; fill-opacity: 0.8"/>
     <use xlink:href="#md2d0a9bc47" x="124.967186" y="242.739818" style="fill: #808080; fill-opacity: 0.8"/>
     <use xlink:href="#md2d0a9bc47" x="139.426874" y="202.439641" style="fill: #808080; fill-opacity: 0.8"/>
     <use xlink:href="#md2d0a9bc47" x="129.319336" y="127.589789" style="fill: #808080; fill-opacity: 0.8"/>
    </g>
   </g>
   <g id="PathCollection_2">
    <g clip-path="url(#pda356fb32e)">
     <use xlink:href="#md2d0a9bc47" x="227.270823" y="18.416182" style="fill: #808080; fill-opacity: 0.8"/>
     <use xlink:href="#md2d0a9bc47" x="216.349535" y="80.05392" style="fill: #808080; fill-opacity: 0.8"/>
     <use xlink:href="#md2d0a9bc47" x="223.90996" y="76.894374" style="fill: #808080; fill-opacity: 0.8"/>
     <use xlink:href="#md2d0a9bc47" x="228.730538" y="66.632903" style="fill: #808080; fill-opacity: 0.8"/>
    </g>
   </g>
   <g id="matplotlib.axis_1">
    <g id="xtick_1">
     <g id="line2d_1">
      <defs>
       <path id="mf5b6c4fd9a" d="M 0 0 
L 0 3.5 
" style="stroke: #000000; stroke-width: 0.8"/>
      </defs>
      <g>
       <use xlink:href="#mf5b6c4fd9a" x="131.779659" y="253.956" style="stroke: #000000; stroke-width: 0.8"/>
      </g>
     </g>
     <g id="text_1">
      <!-- WT -->
      <g transform="translate(117.383878 274.633187) scale(0.18 -0.18)">
       <defs>
        <path id="DejaVuSans-57" d="M 213 4666 
L 850 4666 
L 1831 722 
L 2809 4666 
L 3519 4666 
L 4500 722 
L 5478 4666 
L 6119 4666 
L 4947 0 
L 4153 0 
L 3169 4050 
L 2175 0 
L 1381 0 
L 213 4666 
z
" transform="scale(0.015625)"/>
        <path id="DejaVuSans-54" d="M -19 4666 
L 3928 4666 
L 3928 4134 
L 2272 4134 
L 2272 0 
L 1638 0 
L 1638 4134 
L -19 4134 
L -19 4666 
z
" transform="scale(0.015625)"/>
       </defs>
       <use xlink:href="#DejaVuSans-57"/>
       <use xlink:href="#DejaVuSans-54" x="98.876953"/>
      </g>
     </g>
    </g>
    <g id="xtick_2">
     <g id="line2d_2">
      <g>
       <use xlink:href="#mf5b6c4fd9a" x="225.247841" y="253.956" style="stroke: #000000; stroke-width: 0.8"/>
      </g>
     </g>
     <g id="text_2">
      <!-- KO -->
      <g transform="translate(212.756122 274.633187) scale(0.18 -0.18)">
       <defs>
        <path id="DejaVuSans-4b" d="M 628 4666 
L 1259 4666 
L 1259 2694 
L 3353 4666 
L 4166 4666 
L 1850 2491 
L 4331 0 
L 3500 0 
L 1259 2247 
L 1259 0 
L 628 0 
L 628 4666 
z
" transform="scale(0.015625)"/>
        <path id="DejaVuSans-4f" d="M 2522 4238 
Q 1834 4238 1429 3725 
Q 1025 3213 1025 2328 
Q 1025 1447 1429 934 
Q 1834 422 2522 422 
Q 3209 422 3611 934 
Q 4013 1447 4013 2328 
Q 4013 3213 3611 3725 
Q 3209 4238 2522 4238 
z
M 2522 4750 
Q 3503 4750 4090 4092 
Q 4678 3434 4678 2328 
Q 4678 1225 4090 567 
Q 3503 -91 2522 -91 
Q 1538 -91 948 565 
Q 359 1222 359 2328 
Q 359 3434 948 4092 
Q 1538 4750 2522 4750 
z
" transform="scale(0.015625)"/>
       </defs>
       <use xlink:href="#DejaVuSans-4b"/>
       <use xlink:href="#DejaVuSans-4f" x="60.076172"/>
      </g>
     </g>
    </g>
    <g id="text_3">
     <!-- VPS4B status -->
     <g transform="translate(118.802969 296.053812) scale(0.18 -0.18)">
      <defs>
       <path id="DejaVuSans-56" d="M 1831 0 
L 50 4666 
L 709 4666 
L 2188 738 
L 3669 4666 
L 4325 4666 
L 2547 0 
L 1831 0 
z
" transform="scale(0.015625)"/>
       <path id="DejaVuSans-50" d="M 1259 4147 
L 1259 2394 
L 2053 2394 
Q 2494 2394 2734 2622 
Q 2975 2850 2975 3272 
Q 2975 3691 2734 3919 
Q 2494 4147 2053 4147 
L 1259 4147 
z
M 628 4666 
L 2053 4666 
Q 2838 4666 3239 4311 
Q 3641 3956 3641 3272 
Q 3641 2581 3239 2228 
Q 2838 1875 2053 1875 
L 1259 1875 
L 1259 0 
L 628 0 
L 628 4666 
z
" transform="scale(0.015625)"/>
       <path id="DejaVuSans-53" d="M 3425 4513 
L 3425 3897 
Q 3066 4069 2747 4153 
Q 2428 4238 2131 4238 
Q 1616 4238 1336 4038 
Q 1056 3838 1056 3469 
Q 1056 3159 1242 3001 
Q 1428 2844 1947 2747 
L 2328 2669 
Q 3034 2534 3370 2195 
Q 3706 1856 3706 1288 
Q 3706 609 3251 259 
Q 2797 -91 1919 -91 
Q 1588 -91 1214 -16 
Q 841 59 441 206 
L 441 856 
Q 825 641 1194 531 
Q 1563 422 1919 422 
Q 2459 422 2753 634 
Q 3047 847 3047 1241 
Q 3047 1584 2836 1778 
Q 2625 1972 2144 2069 
L 1759 2144 
Q 1053 2284 737 2584 
Q 422 2884 422 3419 
Q 422 4038 858 4394 
Q 1294 4750 2059 4750 
Q 2388 4750 2728 4690 
Q 3069 4631 3425 4513 
z
" transform="scale(0.015625)"/>
       <path id="DejaVuSans-34" d="M 2419 4116 
L 825 1625 
L 2419 1625 
L 2419 4116 
z
M 2253 4666 
L 3047 4666 
L 3047 1625 
L 3713 1625 
L 3713 1100 
L 3047 1100 
L 3047 0 
L 2419 0 
L 2419 1100 
L 313 1100 
L 313 1709 
L 2253 4666 
z
" transform="scale(0.015625)"/>
       <path id="DejaVuSans-42" d="M 1259 2228 
L 1259 519 
L 2272 519 
Q 2781 519 3026 730 
Q 3272 941 3272 1375 
Q 3272 1813 3026 2020 
Q 2781 2228 2272 2228 
L 1259 2228 
z
M 1259 4147 
L 1259 2741 
L 2194 2741 
Q 2656 2741 2882 2914 
Q 3109 3088 3109 3444 
Q 3109 3797 2882 3972 
Q 2656 4147 2194 4147 
L 1259 4147 
z
M 628 4666 
L 2241 4666 
Q 2963 4666 3353 4366 
Q 3744 4066 3744 3513 
Q 3744 3084 3544 2831 
Q 3344 2578 2956 2516 
Q 3422 2416 3680 2098 
Q 3938 1781 3938 1306 
Q 3938 681 3513 340 
Q 3088 0 2303 0 
L 628 0 
L 628 4666 
z
" transform="scale(0.015625)"/>
       <path id="DejaVuSans-20" transform="scale(0.015625)"/>
       <path id="DejaVuSans-73" d="M 2834 3397 
L 2834 2853 
Q 2591 2978 2328 3040 
Q 2066 3103 1784 3103 
Q 1356 3103 1142 2972 
Q 928 2841 928 2578 
Q 928 2378 1081 2264 
Q 1234 2150 1697 2047 
L 1894 2003 
Q 2506 1872 2764 1633 
Q 3022 1394 3022 966 
Q 3022 478 2636 193 
Q 2250 -91 1575 -91 
Q 1294 -91 989 -36 
Q 684 19 347 128 
L 347 722 
Q 666 556 975 473 
Q 1284 391 1588 391 
Q 1994 391 2212 530 
Q 2431 669 2431 922 
Q 2431 1156 2273 1281 
Q 2116 1406 1581 1522 
L 1381 1569 
Q 847 1681 609 1914 
Q 372 2147 372 2553 
Q 372 3047 722 3315 
Q 1072 3584 1716 3584 
Q 2034 3584 2315 3537 
Q 2597 3491 2834 3397 
z
" transform="scale(0.015625)"/>
       <path id="DejaVuSans-74" d="M 1172 4494 
L 1172 3500 
L 2356 3500 
L 2356 3053 
L 1172 3053 
L 1172 1153 
Q 1172 725 1289 603 
Q 1406 481 1766 481 
L 2356 481 
L 2356 0 
L 1766 0 
Q 1100 0 847 248 
Q 594 497 594 1153 
L 594 3053 
L 172 3053 
L 172 3500 
L 594 3500 
L 594 4494 
L 1172 4494 
z
" transform="scale(0.015625)"/>
       <path id="DejaVuSans-61" d="M 2194 1759 
Q 1497 1759 1228 1600 
Q 959 1441 959 1056 
Q 959 750 1161 570 
Q 1363 391 1709 391 
Q 2188 391 2477 730 
Q 2766 1069 2766 1631 
L 2766 1759 
L 2194 1759 
z
M 3341 1997 
L 3341 0 
L 2766 0 
L 2766 531 
Q 2569 213 2275 61 
Q 1981 -91 1556 -91 
Q 1019 -91 701 211 
Q 384 513 384 1019 
Q 384 1609 779 1909 
Q 1175 2209 1959 2209 
L 2766 2209 
L 2766 2266 
Q 2766 2663 2505 2880 
Q 2244 3097 1772 3097 
Q 1472 3097 1187 3025 
Q 903 2953 641 2809 
L 641 3341 
Q 956 3463 1253 3523 
Q 1550 3584 1831 3584 
Q 2591 3584 2966 3190 
Q 3341 2797 3341 1997 
z
" transform="scale(0.015625)"/>
       <path id="DejaVuSans-75" d="M 544 1381 
L 544 3500 
L 1119 3500 
L 1119 1403 
Q 1119 906 1312 657 
Q 1506 409 1894 409 
Q 2359 409 2629 706 
Q 2900 1003 2900 1516 
L 2900 3500 
L 3475 3500 
L 3475 0 
L 2900 0 
L 2900 538 
Q 2691 219 2414 64 
Q 2138 -91 1772 -91 
Q 1169 -91 856 284 
Q 544 659 544 1381 
z
M 1991 3584 
L 1991 3584 
z
" transform="scale(0.015625)"/>
      </defs>
      <use xlink:href="#DejaVuSans-56"/>
      <use xlink:href="#DejaVuSans-50" x="68.408203"/>
      <use xlink:href="#DejaVuSans-53" x="128.710938"/>
      <use xlink:href="#DejaVuSans-34" x="192.1875"/>
      <use xlink:href="#DejaVuSans-42" x="255.810547"/>
      <use xlink:href="#DejaVuSans-20" x="324.414062"/>
      <use xlink:href="#DejaVuSans-73" x="356.201172"/>
      <use xlink:href="#DejaVuSans-74" x="408.300781"/>
      <use xlink:href="#DejaVuSans-61" x="447.509766"/>
      <use xlink:href="#DejaVuSans-74" x="508.789062"/>
      <use xlink:href="#DejaVuSans-75" x="547.998047"/>
      <use xlink:href="#DejaVuSans-73" x="611.376953"/>
     </g>
    </g>
   </g>
   <g id="matplotlib.axis_2">
    <g id="ytick_1">
     <g id="line2d_3">
      <defs>
       <path id="m2c3de1aeed" d="M 0 0 
L -3.5 0 
" style="stroke: #000000; stroke-width: 0.8"/>
      </defs>
      <g>
       <use xlink:href="#m2c3de1aeed" x="75.69875" y="182.169265" style="stroke: #000000; stroke-width: 0.8"/>
      </g>
     </g>
     <g id="text_4">
      <!-- 24.5 -->
      <g transform="translate(28.620625 189.007859) scale(0.18 -0.18)">
       <defs>
        <path id="DejaVuSans-32" d="M 1228 531 
L 3431 531 
L 3431 0 
L 469 0 
L 469 531 
Q 828 903 1448 1529 
Q 2069 2156 2228 2338 
Q 2531 2678 2651 2914 
Q 2772 3150 2772 3378 
Q 2772 3750 2511 3984 
Q 2250 4219 1831 4219 
Q 1534 4219 1204 4116 
Q 875 4013 500 3803 
L 500 4441 
Q 881 4594 1212 4672 
Q 1544 4750 1819 4750 
Q 2544 4750 2975 4387 
Q 3406 4025 3406 3419 
Q 3406 3131 3298 2873 
Q 3191 2616 2906 2266 
Q 2828 2175 2409 1742 
Q 1991 1309 1228 531 
z
" transform="scale(0.015625)"/>
        <path id="DejaVuSans-2e" d="M 684 794 
L 1344 794 
L 1344 0 
L 684 0 
L 684 794 
z
" transform="scale(0.015625)"/>
        <path id="DejaVuSans-35" d="M 691 4666 
L 3169 4666 
L 3169 4134 
L 1269 4134 
L 1269 2991 
Q 1406 3038 1543 3061 
Q 1681 3084 1819 3084 
Q 2600 3084 3056 2656 
Q 3513 2228 3513 1497 
Q 3513 744 3044 326 
Q 2575 -91 1722 -91 
Q 1428 -91 1123 -41 
Q 819 9 494 109 
L 494 744 
Q 775 591 1075 516 
Q 1375 441 1709 441 
Q 2250 441 2565 725 
Q 2881 1009 2881 1497 
Q 2881 1984 2565 2268 
Q 2250 2553 1709 2553 
Q 1456 2553 1204 2497 
Q 953 2441 691 2322 
L 691 4666 
z
" transform="scale(0.015625)"/>
       </defs>
       <use xlink:href="#DejaVuSans-32"/>
       <use xlink:href="#DejaVuSans-34" x="63.623047"/>
       <use xlink:href="#DejaVuSans-2e" x="127.246094"/>
       <use xlink:href="#DejaVuSans-35" x="159.033203"/>
      </g>
     </g>
    </g>
    <g id="ytick_2">
     <g id="line2d_4">
      <g>
       <use xlink:href="#m2c3de1aeed" x="75.69875" y="110.338014" style="stroke: #000000; stroke-width: 0.8"/>
      </g>
     </g>
     <g id="text_5">
      <!-- 25.0 -->
      <g transform="translate(28.620625 117.176608) scale(0.18 -0.18)">
       <defs>
        <path id="DejaVuSans-30" d="M 2034 4250 
Q 1547 4250 1301 3770 
Q 1056 3291 1056 2328 
Q 1056 1369 1301 889 
Q 1547 409 2034 409 
Q 2525 409 2770 889 
Q 3016 1369 3016 2328 
Q 3016 3291 2770 3770 
Q 2525 4250 2034 4250 
z
M 2034 4750 
Q 2819 4750 3233 4129 
Q 3647 3509 3647 2328 
Q 3647 1150 3233 529 
Q 2819 -91 2034 -91 
Q 1250 -91 836 529 
Q 422 1150 422 2328 
Q 422 3509 836 4129 
Q 1250 4750 2034 4750 
z
" transform="scale(0.015625)"/>
       </defs>
       <use xlink:href="#DejaVuSans-32"/>
       <use xlink:href="#DejaVuSans-35" x="63.623047"/>
       <use xlink:href="#DejaVuSans-2e" x="127.246094"/>
       <use xlink:href="#DejaVuSans-30" x="159.033203"/>
      </g>
     </g>
    </g>
    <g id="ytick_3">
     <g id="line2d_5">
      <g>
       <use xlink:href="#m2c3de1aeed" x="75.69875" y="38.506764" style="stroke: #000000; stroke-width: 0.8"/>
      </g>
     </g>
     <g id="text_6">
      <!-- 25.5 -->
      <g transform="translate(28.620625 45.345357) scale(0.18 -0.18)">
       <use xlink:href="#DejaVuSans-32"/>
       <use xlink:href="#DejaVuSans-35" x="63.623047"/>
       <use xlink:href="#DejaVuSans-2e" x="127.246094"/>
       <use xlink:href="#DejaVuSans-35" x="159.033203"/>
      </g>
     </g>
    </g>
    <g id="text_7">
     <!-- VPS4A abundance -->
     <g transform="translate(20.877188 212.673469) rotate(-90) scale(0.18 -0.18)">
      <defs>
       <path id="DejaVuSans-41" d="M 2188 4044 
L 1331 1722 
L 3047 1722 
L 2188 4044 
z
M 1831 4666 
L 2547 4666 
L 4325 0 
L 3669 0 
L 3244 1197 
L 1141 1197 
L 716 0 
L 50 0 
L 1831 4666 
z
" transform="scale(0.015625)"/>
       <path id="DejaVuSans-62" d="M 3116 1747 
Q 3116 2381 2855 2742 
Q 2594 3103 2138 3103 
Q 1681 3103 1420 2742 
Q 1159 2381 1159 1747 
Q 1159 1113 1420 752 
Q 1681 391 2138 391 
Q 2594 391 2855 752 
Q 3116 1113 3116 1747 
z
M 1159 2969 
Q 1341 3281 1617 3432 
Q 1894 3584 2278 3584 
Q 2916 3584 3314 3078 
Q 3713 2572 3713 1747 
Q 3713 922 3314 415 
Q 2916 -91 2278 -91 
Q 1894 -91 1617 61 
Q 1341 213 1159 525 
L 1159 0 
L 581 0 
L 581 4863 
L 1159 4863 
L 1159 2969 
z
" transform="scale(0.015625)"/>
       <path id="DejaVuSans-6e" d="M 3513 2113 
L 3513 0 
L 2938 0 
L 2938 2094 
Q 2938 2591 2744 2837 
Q 2550 3084 2163 3084 
Q 1697 3084 1428 2787 
Q 1159 2491 1159 1978 
L 1159 0 
L 581 0 
L 581 3500 
L 1159 3500 
L 1159 2956 
Q 1366 3272 1645 3428 
Q 1925 3584 2291 3584 
Q 2894 3584 3203 3211 
Q 3513 2838 3513 2113 
z
" transform="scale(0.015625)"/>
       <path id="DejaVuSans-64" d="M 2906 2969 
L 2906 4863 
L 3481 4863 
L 3481 0 
L 2906 0 
L 2906 525 
Q 2725 213 2448 61 
Q 2172 -91 1784 -91 
Q 1150 -91 751 415 
Q 353 922 353 1747 
Q 353 2572 751 3078 
Q 1150 3584 1784 3584 
Q 2172 3584 2448 3432 
Q 2725 3281 2906 2969 
z
M 947 1747 
Q 947 1113 1208 752 
Q 1469 391 1925 391 
Q 2381 391 2643 752 
Q 2906 1113 2906 1747 
Q 2906 2381 2643 2742 
Q 2381 3103 1925 3103 
Q 1469 3103 1208 2742 
Q 947 2381 947 1747 
z
" transform="scale(0.015625)"/>
       <path id="DejaVuSans-63" d="M 3122 3366 
L 3122 2828 
Q 2878 2963 2633 3030 
Q 2388 3097 2138 3097 
Q 1578 3097 1268 2742 
Q 959 2388 959 1747 
Q 959 1106 1268 751 
Q 1578 397 2138 397 
Q 2388 397 2633 464 
Q 2878 531 3122 666 
L 3122 134 
Q 2881 22 2623 -34 
Q 2366 -91 2075 -91 
Q 1284 -91 818 406 
Q 353 903 353 1747 
Q 353 2603 823 3093 
Q 1294 3584 2113 3584 
Q 2378 3584 2631 3529 
Q 2884 3475 3122 3366 
z
" transform="scale(0.015625)"/>
       <path id="DejaVuSans-65" d="M 3597 1894 
L 3597 1613 
L 953 1613 
Q 991 1019 1311 708 
Q 1631 397 2203 397 
Q 2534 397 2845 478 
Q 3156 559 3463 722 
L 3463 178 
Q 3153 47 2828 -22 
Q 2503 -91 2169 -91 
Q 1331 -91 842 396 
Q 353 884 353 1716 
Q 353 2575 817 3079 
Q 1281 3584 2069 3584 
Q 2775 3584 3186 3129 
Q 3597 2675 3597 1894 
z
M 3022 2063 
Q 3016 2534 2758 2815 
Q 2500 3097 2075 3097 
Q 1594 3097 1305 2825 
Q 1016 2553 972 2059 
L 3022 2063 
z
" transform="scale(0.015625)"/>
      </defs>
      <use xlink:href="#DejaVuSans-56"/>
      <use xlink:href="#DejaVuSans-50" x="68.408203"/>
      <use xlink:href="#DejaVuSans-53" x="128.710938"/>
      <use xlink:href="#DejaVuSans-34" x="192.1875"/>
      <use xlink:href="#DejaVuSans-41" x="255.810547"/>
      <use xlink:href="#DejaVuSans-20" x="324.21875"/>
      <use xlink:href="#DejaVuSans-61" x="356.005859"/>
      <use xlink:href="#DejaVuSans-62" x="417.285156"/>
      <use xlink:href="#DejaVuSans-75" x="480.761719"/>
      <use xlink:href="#DejaVuSans-6e" x="544.140625"/>
      <use xlink:href="#DejaVuSans-64" x="607.519531"/>
      <use xlink:href="#DejaVuSans-61" x="670.996094"/>
      <use xlink:href="#DejaVuSans-6e" x="732.275391"/>
      <use xlink:href="#DejaVuSans-63" x="795.654297"/>
      <use xlink:href="#DejaVuSans-65" x="850.634766"/>
     </g>
    </g>
   </g>
   <g id="patch_3">
    <path d="M 94.392386 196.450844 
L 169.166932 196.450844 
L 169.166932 125.79116 
L 94.392386 125.79116 
L 94.392386 196.450844 
z
" clip-path="url(#pda356fb32e)" style="fill: #ffffff; opacity: 0.8; stroke: #4a4a4a; stroke-width: 2.4; stroke-linejoin: miter"/>
   </g>
   <g id="line2d_6">
    <path d="M 131.779659 196.450844 
L 131.779659 242.739818 
" clip-path="url(#pda356fb32e)" style="fill: none; stroke: #4a4a4a; stroke-width: 2.4"/>
   </g>
   <g id="line2d_7">
    <path d="M 131.779659 125.79116 
L 131.779659 76.380009 
" clip-path="url(#pda356fb32e)" style="fill: none; stroke: #4a4a4a; stroke-width: 2.4"/>
   </g>
   <g id="line2d_8">
    <path d="M 113.086023 242.739818 
L 150.473295 242.739818 
" clip-path="url(#pda356fb32e)" style="fill: none; stroke: #4a4a4a; stroke-width: 2.4; stroke-linecap: square"/>
   </g>
   <g id="line2d_9">
    <path d="M 113.086023 76.380009 
L 150.473295 76.380009 
" clip-path="url(#pda356fb32e)" style="fill: none; stroke: #4a4a4a; stroke-width: 2.4; stroke-linecap: square"/>
   </g>
   <g id="patch_4">
    <path d="M 187.860568 77.684261 
L 262.635114 77.684261 
L 262.635114 54.578723 
L 187.860568 54.578723 
L 187.860568 77.684261 
z
" clip-path="url(#pda356fb32e)" style="fill: #00abf5; opacity: 0.8; stroke: #4a4a4a; stroke-width: 2.4; stroke-linejoin: miter"/>
   </g>
   <g id="line2d_10">
    <path d="M 225.247841 77.684261 
L 225.247841 80.05392 
" clip-path="url(#pda356fb32e)" style="fill: none; stroke: #4a4a4a; stroke-width: 2.4"/>
   </g>
   <g id="line2d_11">
    <path d="M 225.247841 54.578723 
L 225.247841 54.578723 
" clip-path="url(#pda356fb32e)" style="fill: none; stroke: #4a4a4a; stroke-width: 2.4"/>
   </g>
   <g id="line2d_12">
    <path d="M 206.554205 80.05392 
L 243.941477 80.05392 
" clip-path="url(#pda356fb32e)" style="fill: none; stroke: #4a4a4a; stroke-width: 2.4; stroke-linecap: square"/>
   </g>
   <g id="line2d_13">
    <path d="M 206.554205 54.578723 
L 243.941477 54.578723 
" clip-path="url(#pda356fb32e)" style="fill: none; stroke: #4a4a4a; stroke-width: 2.4; stroke-linecap: square"/>
   </g>
   <g id="line2d_14">
    <path d="M 94.392386 145.798524 
L 169.166932 145.798524 
" clip-path="url(#pda356fb32e)" style="fill: none; stroke: #000000; stroke-width: 2.4"/>
   </g>
   <g id="line2d_15">
    <path d="M 187.860568 71.763639 
L 262.635114 71.763639 
" clip-path="url(#pda356fb32e)" style="fill: none; stroke: #000000; stroke-width: 2.4"/>
   </g>
   <g id="patch_5">
    <path d="M 75.69875 253.956 
L 75.69875 7.2 
" style="fill: none; stroke: #000000; stroke-width: 0.8; stroke-linejoin: miter; stroke-linecap: square"/>
   </g>
   <g id="patch_6">
    <path d="M 281.32875 253.956 
L 281.32875 7.2 
" style="fill: none; stroke: #000000; stroke-width: 0.8; stroke-linejoin: miter; stroke-linecap: square"/>
   </g>
   <g id="patch_7">
    <path d="M 75.69875 253.956 
L 281.32875 253.956 
" style="fill: none; stroke: #000000; stroke-width: 0.8; stroke-linejoin: miter; stroke-linecap: square"/>
   </g>
   <g id="patch_8">
    <path d="M 75.69875 7.2 
L 281.32875 7.2 
" style="fill: none; stroke: #000000; stroke-width: 0.8; stroke-linejoin: miter; stroke-linecap: square"/>
   </g>
  </g>
 </g>
 <defs>
  <clipPath id="pda356fb32e">
   <rect x="75.69875" y="7.2" width="205.63" height="246.756"/>
  </clipPath>
 </defs>
</svg>
